<svg width="48" height="48" viewBox="0 0 48 48" fill="none" xmlns="http://www.w3.org/2000/svg">
<g clip-path="url(#clip0_10_50)">
<path fill-rule="evenodd" clip-rule="evenodd" d="M22 4H18C13.5817 4 10 7.58172 10 12C10 14.3894 11.0475 16.5341 12.7084 18C11.0475 19.4659 10 21.6106 10 24C10 26.3894 11.0475 28.5342 12.7084 30C11.0475 31.4658 10 33.6106 10 36C10 40.4182 13.5817 44 18 44C22.4182 44 26 40.4182 26 36V32V30.9298C27.1766 31.6104 28.5428 32 30 32C34.4182 32 38 28.4182 38 24C38 21.6106 36.9524 19.4659 35.2916 18C36.9524 16.5341 38 14.3894 38 12C38 7.58172 34.4182 4 30 4H26H24H22ZM26 8V16H30C32.2092 16 34 14.2091 34 12C34 9.79086 32.2092 8 30 8H26ZM22 20H18C15.7909 20 14 21.7908 14 24C14 26.2092 15.7909 28 18 28H22V24V20ZM18 16H22V8H18C15.7909 8 14 9.79086 14 12C14 14.2091 15.7909 16 18 16ZM26 24C26 26.2092 27.7908 28 30 28C32.2092 28 34 26.2092 34 24C34 21.7908 32.2092 20 30 20C27.7908 20 26 21.7908 26 24ZM18 32H22V36C22 38.2092 20.2092 40 18 40C15.7909 40 14 38.2092 14 36C14 33.7908 15.7909 32 18 32Z" fill="#3BBA9C"/>
</g>
<defs>
<clipPath id="clip0_10_50">
<rect width="48" height="48" fill="white"/>
</clipPath>
</defs>
</svg>
