<svg width="48" height="48" viewBox="0 0 48 48" fill="none" xmlns="http://www.w3.org/2000/svg">
<g clip-path="url(#clip0_10_12)">
<g clip-path="url(#clip1_10_12)">
<path fill-rule="evenodd" clip-rule="evenodd" d="M36.7872 44.2371C32.5992 44.2371 29.892 42.2405 28.572 39.6293L32.244 37.5023C33.2112 39.0815 34.4664 40.241 36.6912 40.241C38.5584 40.241 39.7512 39.3068 39.7512 38.018C39.7512 36.0788 37.164 35.3211 35.3376 34.5387C32.0832 33.1539 29.9232 31.4139 29.9232 27.7395C29.9232 24.3579 32.5008 21.7805 36.5304 21.7805C39.396 21.7805 41.46 22.7787 42.9408 25.3875L39.4296 27.6434C38.6568 26.2586 37.8192 25.7109 36.5304 25.7109C35.208 25.7109 34.3704 26.549 34.3704 27.6434C34.3704 28.997 35.208 29.5444 37.1424 30.382C41.196 32.1196 44.2632 33.4847 44.2632 37.9535C44.2632 42.0143 41.0736 44.2371 36.7872 44.2371ZM26.4 37.4379C26.4 42.1107 23.5224 44.5805 19.5264 44.5805C15.9168 44.5805 13.7544 43.2 12.6912 40.8H12.6552H12.6384H12.6288L16.2984 38.2348C17.0064 39.49 17.6448 40.3805 19.1904 40.3805C20.6736 40.3805 21.6 39.6294 21.6 37.3758V21.6H26.4V37.4379ZM0 48H48V0H0V48Z" fill="#3BBA9C"/>
</g>
</g>
<defs>
<clipPath id="clip0_10_12">
<rect width="48" height="48" fill="white"/>
</clipPath>
<clipPath id="clip1_10_12">
<rect width="48" height="48" fill="white"/>
</clipPath>
</defs>
</svg>
