<svg width="48" height="48" viewBox="0 0 48 48" fill="none" xmlns="http://www.w3.org/2000/svg">
<g clip-path="url(#clip0_10_35)">
<path d="M23.7315 34.7774C23.7315 34.7774 23.7315 19.2359 24.2475 19.2374C24.6465 19.2374 25.1655 39.285 25.1655 39.285C24.4515 39.201 23.7315 35.9864 23.7315 34.7774ZM33.7335 19.4174C32.355 13.3934 29.3355 8.21395 25.1715 4.21645L25.161 4.20745C24.654 3.43345 24.1905 2.54545 23.8185 1.60945L23.7825 1.50745C23.784 1.53745 23.784 1.57345 23.784 1.60945C23.784 2.45695 23.4045 3.21445 22.806 3.72295L22.8015 3.72595C17.4405 8.27695 14.0295 14.9834 13.917 22.4879V22.5074C13.9155 22.6004 13.9155 22.7099 13.9155 22.8194C13.9155 30.2549 17.493 36.8549 23.0205 40.9919L23.079 41.034L23.2095 41.1285C23.4505 42.9125 23.6565 44.7005 23.8275 46.4925H24.729C24.978 44.256 25.314 42.2985 25.7535 40.3785L25.6845 40.737C26.2785 40.3245 26.7975 39.8969 27.282 39.4334L27.2775 39.438C31.479 35.5425 34.101 29.9924 34.101 23.8319C34.101 23.7404 34.101 23.6504 34.0995 23.5589V23.5724C34.095 22.1009 33.9615 20.6624 33.708 19.2659L33.7305 19.4144L33.7335 19.4174Z" fill="#3BBA9C"/>
</g>
<defs>
<clipPath id="clip0_10_35">
<rect width="48" height="48" fill="white"/>
</clipPath>
</defs>
</svg>
