<svg width="48" height="48" viewBox="0 0 48 48" fill="none" xmlns="http://www.w3.org/2000/svg">
<g clip-path="url(#clip0_10_23)">
<g clip-path="url(#clip1_10_23)">
<mask id="mask0_10_23" style="mask-type:luminance" maskUnits="userSpaceOnUse" x="0" y="0" width="48" height="48">
<path d="M48 0H0V48H48V0Z" fill="white"/>
</mask>
<g mask="url(#mask0_10_23)">
<path d="M22.4282 0.0129189C22.325 0.022303 21.9964 0.0551476 21.7008 0.078608C14.8833 0.69327 8.49736 4.37186 4.45278 10.0258C2.20058 13.1695 0.760118 16.7355 0.215836 20.5126C0.0234604 21.8312 0 22.2206 0 24.0082C0 25.796 0.0234604 26.1854 0.215836 27.5038C1.52023 36.5174 7.93432 44.0904 16.6334 46.8962C18.1912 47.3982 19.8334 47.7408 21.7008 47.9472C22.4282 48.027 25.5718 48.027 26.2992 47.9472C29.5226 47.5906 32.2534 46.793 34.9466 45.4182C35.3596 45.207 35.4392 45.1508 35.383 45.1038C35.3454 45.0756 33.586 42.7156 31.4744 39.8628L27.6364 34.678L22.827 27.5602C20.1806 23.647 18.0035 20.447 17.9848 20.447C17.966 20.4422 17.9472 23.6048 17.9378 27.4662C17.9238 34.2276 17.9191 34.4998 17.8346 34.6592C17.7126 34.8892 17.6188 34.983 17.4217 35.0862C17.2716 35.1614 17.1402 35.1754 16.4317 35.1754H15.6199L15.4041 35.0394C15.2633 34.9502 15.1601 34.8328 15.0897 34.6968L14.9912 34.4856L15.0006 25.078L15.0147 15.6657L15.1601 15.4827C15.2352 15.3842 15.3947 15.2575 15.5073 15.1965C15.6997 15.1027 15.7748 15.0933 16.5865 15.0933C17.5437 15.0933 17.7032 15.1308 17.9519 15.4029C18.0223 15.478 20.6264 19.4006 23.742 24.1256C26.8574 28.8504 31.1178 35.302 33.2106 38.4692L37.0112 44.2264L37.2036 44.0998C38.9068 42.9924 40.7086 41.4158 42.1348 39.7736C45.1706 36.2874 47.1272 32.0364 47.7842 27.5038C47.9766 26.1854 48 25.796 48 24.0082C48 22.2206 47.9766 21.8312 47.7842 20.5126C46.4798 11.4991 40.0656 3.92612 31.3666 1.12025C29.8322 0.62289 28.1994 0.280368 26.3696 0.073916C25.919 0.0269952 22.8176 -0.0246178 22.4282 0.0129189ZM32.2534 14.5302C32.4786 14.6428 32.6616 14.8587 32.7272 15.0839C32.7648 15.2059 32.7742 17.8147 32.7648 23.6938L32.7508 32.1302L31.2634 29.8498L29.7712 27.5696V21.437C29.7712 17.4722 29.79 15.2434 29.8182 15.1355C29.8932 14.8727 30.0574 14.6663 30.2826 14.5443C30.475 14.4458 30.5454 14.4364 31.2822 14.4364C31.9766 14.4364 32.0986 14.4458 32.2534 14.5302Z" fill="#3BBA9C"/>
</g>
</g>
</g>
<defs>
<clipPath id="clip0_10_23">
<rect width="48" height="48" fill="white"/>
</clipPath>
<clipPath id="clip1_10_23">
<rect width="48" height="48" fill="white"/>
</clipPath>
</defs>
</svg>
