<svg width="48" height="48" viewBox="0 0 48 48" fill="none" xmlns="http://www.w3.org/2000/svg">
<g clip-path="url(#clip0_10_39)">
<g clip-path="url(#clip1_10_39)">
<path fill-rule="evenodd" clip-rule="evenodd" d="M30.5856 44.2992C29.4288 44.2992 28.4928 43.3586 28.4928 42.1957C28.4928 41.0329 29.4288 40.0945 30.5856 40.0945C31.7424 40.0945 32.6784 41.0329 32.6784 42.1957C32.6784 43.3586 31.7424 44.2992 30.5856 44.2992ZM24.1728 48C36.36 48 35.5992 42.6879 35.5992 42.6879L35.5848 37.1848H23.9568V35.5324H40.2024C40.2024 35.5324 48 36.4227 48 24.0633C48 11.7038 41.196 12.1395 41.196 12.1395H37.1328V17.877C37.1328 17.877 37.3512 24.716 30.4368 24.716H18.9024C18.9024 24.716 12.4224 24.6132 12.4224 31.0137V41.5945C12.4224 41.5945 11.4384 48 24.1728 48ZM17.4168 3.70078C18.5736 3.70078 19.5072 4.64145 19.5072 5.8043C19.5072 6.96715 18.5736 7.90547 17.4168 7.90547C16.26 7.90547 15.324 6.96715 15.324 5.8043C15.324 4.64145 16.26 3.70078 17.4168 3.70078ZM23.8272 0C11.6424 0 12.4032 5.31211 12.4032 5.31211L12.4176 10.8152H24.0456V12.4676H7.79758C7.79758 12.4676 0 11.5773 0 23.9367C0 36.2962 6.8064 35.8605 6.8064 35.8605H10.8672V30.123C10.8672 30.123 10.6488 23.284 17.5656 23.284H29.0976C29.0976 23.284 35.5776 23.3868 35.5776 16.9863V6.40547C35.5776 6.40547 36.5616 0 23.8272 0Z" fill="#3BBA9C"/>
</g>
</g>
<defs>
<clipPath id="clip0_10_39">
<rect width="48" height="48" fill="white"/>
</clipPath>
<clipPath id="clip1_10_39">
<rect width="48" height="48" fill="white"/>
</clipPath>
</defs>
</svg>
