<svg width="48" height="48" viewBox="0 0 48 48" fill="none" xmlns="http://www.w3.org/2000/svg">
<path d="M21.4695 33.3164C22.2945 33.3539 23.1375 33.3809 23.991 33.3809C24.8535 33.3809 25.7055 33.3629 26.541 33.3164C25.7055 34.3964 24.8805 35.3519 24.0075 36.2624L24.0195 36.2504C23.151 35.3504 22.317 34.3934 21.531 33.3974L21.4695 33.3164ZM12.9225 32.1164C14.547 32.5289 16.5285 32.8799 18.5505 33.0959L18.747 33.1124C19.9845 34.8119 21.2355 36.3074 22.578 37.7144L22.5615 37.6964C20.595 39.8909 17.9415 41.4329 14.94 41.9864L14.8575 41.9984C14.8515 41.9984 14.8455 41.9984 14.8395 41.9984C14.4675 41.9984 14.1165 41.9069 13.809 41.7449L13.821 41.7509C12.573 41.0384 12.0315 38.3129 12.453 34.8104C12.5535 33.9479 12.7185 33.0404 12.921 32.1149L12.9225 32.1164ZM35.097 32.0969C35.274 32.8079 35.4405 33.7139 35.559 34.6349L35.5725 34.7639C36.003 38.2649 35.472 40.9874 34.2345 41.7149C33.9585 41.8679 33.6285 41.9579 33.2775 41.9579C33.243 41.9579 33.2085 41.9564 33.174 41.9549H33.1785C30.099 41.3924 27.447 39.8609 25.485 37.6934L25.4745 37.6814C26.793 36.2969 28.035 34.8044 29.1735 33.2339L29.2605 33.1079C31.4745 32.8769 33.459 32.5199 35.3925 32.0324L35.097 32.0954V32.0969ZM14.676 26.4989C15.051 27.2339 15.444 27.9659 15.876 28.7009C16.307 29.4319 16.7475 30.1459 17.1975 30.8429C15.8955 30.6524 14.6385 30.4124 13.437 30.1199C13.7745 28.9394 14.1975 27.7169 14.6745 26.4959L14.676 26.4989ZM33.318 26.4614C33.8145 27.6929 34.236 28.9214 34.5855 30.1124C33.3855 30.4064 32.118 30.6554 30.807 30.8429C31.257 30.1394 31.707 29.4149 32.1285 28.6724C32.55 27.9419 32.9445 27.1949 33.321 26.4599L33.318 26.4614ZM11.4285 18.4379C12.0825 20.6549 12.7845 22.5089 13.602 24.2969L13.4895 24.0239C12.7905 25.5314 12.099 27.3749 11.532 29.2724L11.454 29.5799C10.395 29.2544 9.54301 28.9349 8.71351 28.5764L8.88601 28.6424C5.64001 27.2609 3.54001 25.4444 3.54001 24.0044C3.54001 22.5644 5.64001 20.7389 8.88601 19.3634C9.67351 19.0259 10.5375 18.7214 11.4285 18.4379ZM36.537 18.4304C37.4445 18.7109 38.307 19.0244 39.114 19.3634C42.36 20.7509 44.46 22.5644 44.46 24.0044C44.451 25.4444 42.351 27.2654 39.105 28.6439C38.3175 28.9814 37.455 29.2844 36.5655 29.5679C35.9055 27.3434 35.2035 25.4909 34.389 23.6999L34.503 23.9819C35.199 22.4759 35.892 20.6324 36.4575 18.7349L36.537 18.4259V18.4304ZM30.795 17.1659C32.0985 17.3594 33.354 17.5964 34.5555 17.8919C34.218 19.0769 33.7965 20.2949 33.318 21.5159C32.943 20.7854 32.55 20.0489 32.118 19.3154C31.6965 18.5804 31.2465 17.8649 30.7965 17.1674L30.795 17.1659ZM17.187 17.1659C16.737 17.8724 16.287 18.5954 15.867 19.3409C15.4455 20.0714 15.051 20.8064 14.676 21.5414C14.1795 20.3114 13.758 19.0859 13.4085 17.8919C14.6085 17.6114 15.873 17.3609 17.1855 17.1689L17.187 17.1659ZM24 16.6889C25.3875 16.6889 26.769 16.7519 28.128 16.8629C28.889 17.9539 29.628 19.1159 30.345 20.3489C31.042 21.5489 31.678 22.7649 32.253 23.9969C31.6755 25.2254 31.0425 26.4524 30.354 27.6524C29.6415 28.8899 28.905 30.0674 28.1415 31.1579C26.7765 31.2764 25.3935 31.3409 23.9985 31.3409C22.611 31.3409 21.2295 31.2749 19.8705 31.1669C19.11 30.0764 18.3675 28.9094 17.6535 27.6809C16.9565 26.4809 16.3205 25.2649 15.7455 24.0329C16.314 22.8014 16.956 21.5714 17.6445 20.3699C18.357 19.1324 19.0935 17.9594 19.857 16.8689C21.222 16.7489 22.605 16.6859 24 16.6859V16.6889ZM23.9715 11.7674C24.8415 12.6674 25.6755 13.6229 26.46 14.6189L26.52 14.6984C25.695 14.6609 24.852 14.6354 23.9985 14.6354C23.136 14.6354 22.284 14.6534 21.4485 14.6984C22.2825 13.6184 23.1075 12.6629 23.982 11.7524L23.97 11.7644L23.9715 11.7674ZM14.82 6.04944C17.8995 6.61344 20.55 8.14494 22.5135 10.3109L22.524 10.3229C21.2055 11.7089 19.9635 13.2014 18.825 14.7749L18.738 14.9009C16.5255 15.1304 14.541 15.4844 12.609 15.9719L12.903 15.9089C12.693 14.9909 12.537 14.1014 12.4275 13.2479C11.997 9.74694 12.528 7.02444 13.7655 6.29994C14.0745 6.15444 14.436 6.06444 14.817 6.05244H14.8215L14.82 6.04944ZM33.135 6.01194V6.02394C33.1545 6.02394 33.177 6.02244 33.201 6.02244C33.5595 6.02244 33.897 6.11094 34.194 6.26694L34.182 6.26094C35.43 6.97644 35.9715 9.70044 35.55 13.2044C35.4495 14.0669 35.2845 14.9759 35.082 15.9029C33.4545 15.4859 31.473 15.1334 29.451 14.9189L29.259 14.9024C28.02 13.2014 26.769 11.7059 25.4265 10.2974L25.4445 10.3154C27.411 8.12544 30.06 6.58344 33.0555 6.02694L33.1395 6.01344L33.135 6.01194ZM33.144 3.96894C29.481 4.52544 26.31 6.30444 23.994 8.87094L23.982 8.88444C21.6495 6.31944 18.4785 4.55244 14.9055 4.01694L14.8215 4.00644C14.802 4.00644 14.778 4.00644 14.754 4.00644C14.0175 4.00644 13.326 4.19994 12.7275 4.53894L12.7485 4.52844C10.1715 6.01494 9.59401 10.6469 10.9245 16.4594C5.21851 18.2219 1.50751 21.0389 1.50751 24.0074C1.50751 26.9879 5.23801 29.8124 10.9605 31.5614C9.64051 37.3964 10.23 42.0359 12.813 43.5209C13.38 43.8464 14.061 44.0369 14.7855 44.0369C14.8185 44.0369 14.8515 44.0369 14.883 44.0354H14.8785C18.5415 43.4789 21.7125 41.6984 24.0285 39.1304L24.0405 39.1169C26.373 41.6834 29.544 43.4504 33.117 43.9859L33.201 43.9964C33.2235 43.9964 33.252 43.9964 33.279 43.9964C34.011 43.9964 34.6995 43.8044 35.295 43.4699L35.274 43.4804C37.8495 41.9954 38.4285 37.3634 37.098 31.5494C42.783 29.8019 46.494 26.9789 46.494 24.0059C46.494 21.0254 42.7635 18.2009 37.041 16.4474C38.361 10.6184 37.7715 5.97444 35.1885 4.48794C34.6155 4.15944 33.9285 3.96594 33.1965 3.96594C33.177 3.96594 33.1575 3.96594 33.138 3.96594H33.141L33.144 3.96894ZM28.1805 24.0074C28.1805 26.3219 26.304 28.1984 23.9895 28.1984C21.675 28.1984 19.7985 26.3219 19.7985 24.0074C19.7985 21.6929 21.675 19.8164 23.9895 19.8164C25.1475 19.8164 26.1945 20.2859 26.9535 21.0434C27.7125 21.8024 28.1805 22.8494 28.1805 24.0074Z" fill="#3BBA9C"/>
</svg>
