<svg width="48" height="48" viewBox="0 0 48 48" fill="none" xmlns="http://www.w3.org/2000/svg">
<g clip-path="url(#clip0_10_5)">
<path d="M12.843 22.884C16.425 24.1431 20.2039 24.7492 24 24.6735C27.7962 24.7487 31.575 24.1421 35.157 22.8825C37.953 21.792 38.9445 20.58 38.9445 19.8825V14.55C37.967 15.2047 36.9182 15.7461 35.8185 16.164C32.0286 17.5211 28.0249 18.1827 24 18.117C19.9754 18.1815 15.9721 17.5209 12.1815 16.167C11.0812 15.7491 10.0324 15.2066 9.05548 14.55V19.875C9.05548 20.586 10.05 21.792 12.843 22.884Z" fill="#3BBA9C"/>
<path d="M12.843 32.9415C14.1084 33.424 15.4133 33.7959 16.743 34.053C19.134 34.5155 21.5646 34.7431 24 34.7325C26.4353 34.7436 28.8659 34.5165 31.257 34.0545C32.5867 33.7974 33.8916 33.4255 35.157 32.943C37.953 31.8525 38.9445 30.6405 38.9445 29.943V24.858C38.1365 25.3442 37.2872 25.7583 36.4065 26.0955C32.4251 27.5051 28.2228 28.1875 24 28.11C19.7767 28.1851 15.5744 27.5002 11.5935 26.088C10.7132 25.7499 9.86396 25.3359 9.05548 24.8505V29.94C9.05548 30.639 10.05 31.8465 12.843 32.9415Z" fill="#3BBA9C"/>
<path d="M24 44.9999C32.25 44.9999 38.9445 42.3839 38.9445 39.1589V34.9034C38.2094 35.3465 37.4393 35.7288 36.642 36.0464L36.4065 36.1409C32.4259 37.5548 28.2235 38.2412 24 38.1674C19.7763 38.2433 15.5735 37.5568 11.5935 36.1409C11.5125 36.1109 11.4345 36.0764 11.358 36.0464C10.5606 35.7288 9.79056 35.3465 9.05548 34.9034V39.1589C9.05548 42.3839 15.75 44.9999 24 44.9999Z" fill="#3BBA9C"/>
<path d="M24 14.682C32.2536 14.682 38.9445 12.0669 38.9445 8.841C38.9445 5.6151 32.2536 3 24 3C15.7464 3 9.05548 5.6151 9.05548 8.841C9.05548 12.0669 15.7464 14.682 24 14.682Z" fill="#3BBA9C"/>
</g>
<defs>
<clipPath id="clip0_10_5">
<rect width="48" height="48" fill="white"/>
</clipPath>
</defs>
</svg>
