<svg width="48" height="48" viewBox="0 0 48 48" fill="none" xmlns="http://www.w3.org/2000/svg">
<g clip-path="url(#clip0_10_19)">
<g clip-path="url(#clip1_10_19)">
<path d="M0 24V48H48V0H0V24ZM38.682 22.088C39.902 22.392 40.83 22.934 41.684 23.818C42.126 24.29 42.782 25.15 42.834 25.358C42.85 25.418 40.762 26.818 39.498 27.604C39.452 27.634 39.268 27.436 39.064 27.132C38.444 26.232 37.798 25.844 36.808 25.776C35.352 25.676 34.416 26.438 34.424 27.71C34.4107 28.0228 34.4812 28.3335 34.628 28.61C34.948 29.272 35.544 29.67 37.408 30.476C40.846 31.956 42.316 32.93 43.23 34.316C44.25 35.862 44.48 38.332 43.786 40.168C43.026 42.164 41.136 43.52 38.476 43.968C37.654 44.114 35.704 44.092 34.82 43.932C32.892 43.588 31.064 42.636 29.936 41.386C29.494 40.9 28.632 39.626 28.686 39.536C28.708 39.504 28.906 39.382 29.126 39.254C29.342 39.132 30.148 38.666 30.91 38.224L32.29 37.424L32.58 37.852C32.984 38.468 33.866 39.314 34.4 39.596C35.932 40.404 38.034 40.29 39.07 39.36C39.2783 39.1845 39.4432 38.9632 39.5518 38.7134C39.6604 38.4636 39.7098 38.192 39.696 37.92C39.696 37.364 39.626 37.12 39.336 36.7C38.964 36.168 38.202 35.72 36.038 34.78C33.562 33.714 32.496 33.052 31.52 32C30.9108 31.3057 30.461 30.4866 30.202 29.6C30.02 28.922 29.974 27.222 30.118 26.538C30.628 24.144 32.434 22.478 35.04 21.982C35.886 21.822 37.852 21.882 38.682 22.088ZM27.414 24.092L27.43 26.058H21.18V43.81H16.76V26.058H10.516V24.13C10.516 23.062 10.538 22.17 10.568 22.15C10.592 22.118 14.394 22.102 19.002 22.11L27.392 22.134L27.414 24.092Z" fill="#3BBA9C"/>
</g>
</g>
<defs>
<clipPath id="clip0_10_19">
<rect width="48" height="48" fill="white"/>
</clipPath>
<clipPath id="clip1_10_19">
<rect width="48" height="48" fill="white"/>
</clipPath>
</defs>
</svg>
